# xmcd CD database file
#
# Track frame offsets:
#	150
#	12867
#	26125
#	39017
#	50717
#	60750
#	72735
#	83430
#	95050
#	106097
#	119967
#	133042
#
# Disc length: 1955 seconds
#
# Revision: 2
# Processed by: cddbd v1.5.2PL0 Copyright (c) Steve Scherf et al.
# Submitted via: CDex 1.51
#
DISCID=9e07a10c
DTITLE=Elmore James - The Sky Is Crying
DYEAR=1900
DGENRE=Blues
TTITLE0=The Sky Is Crying
TTITLE1=Dust My Bloom
TTITLE2=I Held My Baby
TTITLE3=Fine Little Mama
TTITLE4=Bobby's Rock
TTITLE5=I Can't Stop Loving You
TTITLE6=I Done Somebody Wrong
TTITLE7=Rollin' And Tumblin'
TTITLE8=One Way Out
TTITLE9=My Bleeding Heart
TTITLE10=I'm Worried
TTITLE11=Standing At The Crossroads
EXTD=
EXTT0=
EXTT1=
EXTT2=
EXTT3=
EXTT4=
EXTT5=
EXTT6=
EXTT7=
EXTT8=
EXTT9=
EXTT10=
EXTT11=
PLAYORDER=
